<svg xmlns="http://www.w3.org/2000/svg" width="20" height="19" viewBox="0 0 20 19"><g><g><path fill="#fff" d="M10.14 17.157c0 .994-.79 1.803-1.76 1.803s-1.76-.81-1.76-1.803c0-.995.79-1.803 1.76-1.803s1.76.808 1.76 1.803zm-.983 0a.788.788 0 0 0-.777-.797.788.788 0 0 0-.778.797c0 .439.35.796.778.796a.788.788 0 0 0 .777-.796zm7.155 0c0 .994-.79 1.803-1.76 1.803s-1.76-.81-1.76-1.803c0-.995.79-1.803 1.76-1.803.971 0 1.76.808 1.76 1.803zm-.982 0a.788.788 0 0 0-.777-.797.788.788 0 0 0-.778.797c0 .439.349.796.778.796a.788.788 0 0 0 .777-.796zm.147-10.793c0 .278-.22.503-.491.503h-7.04a.498.498 0 0 1-.492-.503c0-.278.22-.503.491-.503h7.04c.272 0 .492.225.492.503zm-.383 2.614c0 .278-.22.503-.491.503H8.328a.497.497 0 0 1-.49-.503c0-.278.22-.504.49-.504h6.275c.271 0 .49.226.49.504zm4.885-4.521l-1.374 6.834a.992.992 0 0 1-.962.804H5.492l.29 1.438h11.77c.27 0 .49.225.49.503s-.22.503-.49.503H5.782a.992.992 0 0 1-.963-.803L2.44 1.913.285.953A.508.508 0 0 1 .03.293.487.487 0 0 1 .676.03l2.157.96c.293.13.506.4.57.72l.31 1.537h15.304a.97.97 0 0 1 .761.37c.188.236.261.542.201.84zm-.962-.203H3.915l1.375 6.834h12.353z"/></g></g></svg>